<?xml version="1.0" encoding="UTF-8"?><svg id="a" xmlns="http://www.w3.org/2000/svg" viewBox="0 0 48 48"><defs><style>.g{fill:#38679c;}.h{fill:#fff;stroke:#38679c;stroke-miterlimit:10;stroke-width:3px;}</style></defs><rect id="b" class="h" x="1.5" y="1.5" width="45" height="45" rx="4.6" ry="4.6"/><g id="c"><path id="d" class="g" d="M11.83,19.75l2.33,4.24,9.64-.02,5.2-8.13-2.33-4.24-5.2,8.13-9.64,.02Zm1.5-14.51L5.15,18.01l15.15-.03,6.69-10.45,4.02,7.33,2.12-1.16-4.65-8.49-15.15,.03Z"/><path id="e" class="g" d="M35.97,12.61l2.5,1.58-3.37,5.34-4.37-2.76-5.11,8.12,1.54,.97,4.14-6.57,4.37,2.76,4.35-6.89,2.5,1.58-1.21-5.36-5.35,1.21Z"/><g id="f"><path class="g" d="M15.21,41.67v-3.43h-4.17v-2.03l3.64-8.5h2.77v8.63h1.43v1.9h-1.43v3.43h-2.24Zm-2.17-5.33h2.17v-6.07l-2.17,6.07Z"/><path class="g" d="M23.78,41.88c-.82,0-1.49-.17-2.02-.52s-.94-.82-1.21-1.43c-.27-.61-.4-1.31-.4-2.1v-6.19c0-.82,.13-1.53,.39-2.15,.26-.62,.65-1.09,1.19-1.44s1.22-.52,2.06-.52,1.53,.17,2.06,.52,.93,.82,1.19,1.44c.26,.61,.39,1.33,.39,2.15v6.19c0,.79-.13,1.49-.41,2.1-.27,.61-.67,1.08-1.21,1.43s-1.21,.52-2.03,.52Zm0-2.05c.36,0,.62-.11,.79-.33,.17-.22,.29-.48,.34-.79,.06-.31,.09-.62,.09-.91v-6.12c0-.32-.03-.64-.08-.96-.05-.32-.16-.58-.34-.8-.17-.22-.44-.33-.81-.33s-.64,.11-.81,.33c-.17,.22-.28,.49-.34,.8-.05,.32-.08,.63-.08,.96v6.12c0,.3,.03,.6,.09,.91,.06,.31,.18,.57,.35,.79,.17,.22,.43,.33,.78,.33Z"/><path class="g" d="M33.1,41.67v-3.43h-4.17v-2.03l3.64-8.5h2.78v8.63h1.43v1.9h-1.43v3.43h-2.24Zm-2.17-5.33h2.17v-6.07l-2.17,6.07Z"/></g></g></svg>